# xmcd CD database file
#
# Track frame offsets:
#	150
#	19858
#	39232
#	57141
#	67451
#	83433
#	104050
#	125397
#	142869
#	163288
#	179270
#	199519
#	212182
#	228214
#	242795
#	255298
#	273017
#	287206
#	313259
#	322244
#
# Disc length: 4633 seconds
#
# Revision: 3
# Processed by: cddbd v1.5.2PL0 Copyright (c) Steve Scherf et al.
# Submitted via: CDex 1.51
#
DISCID=24121714
DTITLE=Rita Falk - Schweinskopf al Dente CD2
DYEAR=2011
DGENRE=Hörbuch
TTITLE0=Schweinskopf al Dente CD2-01
TTITLE1=Schweinskopf al Dente CD2-02
TTITLE2=Schweinskopf al Dente CD2-03
TTITLE3=Schweinskopf al Dente CD2-04
TTITLE4=Schweinskopf al Dente CD2-05
TTITLE5=Schweinskopf al Dente CD2-06
TTITLE6=Schweinskopf al Dente CD2-07
TTITLE7=Schweinskopf al Dente CD2-08
TTITLE8=Schweinskopf al Dente CD2-09
TTITLE9=Schweinskopf al Dente CD2-10
TTITLE10=Schweinskopf al Dente CD2-11
TTITLE11=Schweinskopf al Dente CD2-12
TTITLE12=Schweinskopf al Dente CD2-13
TTITLE13=Schweinskopf al Dente CD2-14
TTITLE14=Schweinskopf al Dente CD2-15
TTITLE15=Schweinskopf al Dente CD2-16
TTITLE16=Schweinskopf al Dente CD2-17
TTITLE17=Schweinskopf al Dente CD2-18
TTITLE18=Schweinskopf al Dente CD2-19
TTITLE19=Schweinskopf al Dente CD2-20
EXTD=YEAR: 2011
EXTT0=
EXTT1=
EXTT2=
EXTT3=
EXTT4=
EXTT5=
EXTT6=
EXTT7=
EXTT8=
EXTT9=
EXTT10=
EXTT11=
EXTT12=
EXTT13=
EXTT14=
EXTT15=
EXTT16=
EXTT17=
EXTT18=
EXTT19=
PLAYORDER=
